<?xml version="1.0" standalone="no"?>
<!DOCTYPE svg PUBLIC "-//W3C//DTD SVG 20010904//EN"
 "http://www.w3.org/TR/2001/REC-SVG-20010904/DTD/svg10.dtd">
<svg version="1.0" xmlns="http://www.w3.org/2000/svg"
 width="1080.000000pt" height="1080.000000pt" viewBox="0 0 1080.000000 1080.000000"
 preserveAspectRatio="xMidYMid meet">
<metadata>
Created by potrace 1.14, written by Peter Selinger 2001-2017
</metadata>
<g transform="translate(0.000000,1080.000000) scale(0.100000,-0.100000)"
fill="#000000" stroke="none">
<path d="M5000 10761 c0 -3 -15 -7 -32 -7 -66 -2 -246 -19 -293 -28 -16 -3
-51 -8 -76 -11 -25 -3 -83 -12 -130 -21 -46 -8 -93 -16 -104 -18 -18 -3 -99
-19 -150 -31 -11 -2 -47 -11 -81 -19 -34 -8 -72 -17 -85 -20 -13 -2 -35 -9
-49 -14 -14 -5 -28 -10 -32 -11 -5 0 -9 -1 -10 -2 -2 0 -10 -2 -18 -4 -8 -1
-35 -9 -60 -16 -25 -7 -49 -14 -55 -15 -5 0 -23 -6 -39 -13 -16 -6 -36 -13
-45 -14 -9 -1 -22 -6 -28 -10 -7 -5 -17 -6 -22 -3 -5 4 -11 2 -13 -3 -1 -6
-14 -12 -28 -15 -14 -3 -47 -13 -75 -24 -160 -62 -185 -70 -185 -64 0 4 -4 1
-9 -6 -4 -7 -14 -15 -22 -16 -35 -7 -319 -134 -379 -170 -14 -8 -50 -27 -80
-41 -49 -25 -107 -56 -195 -105 -16 -9 -60 -36 -98 -58 -37 -23 -72 -42 -77
-42 -6 0 -13 -7 -16 -15 -4 -8 -10 -15 -15 -15 -12 0 -93 -52 -97 -62 -2 -5
-9 -8 -15 -8 -7 0 -24 -10 -39 -23 -15 -12 -50 -38 -78 -57 -28 -19 -58 -41
-65 -47 -7 -7 -18 -13 -23 -13 -6 0 -12 -3 -14 -7 -1 -5 -46 -41 -98 -82 -52
-41 -96 -78 -98 -83 -2 -4 -8 -8 -13 -8 -6 0 -20 -10 -33 -22 -13 -13 -41 -38
-62 -57 -224 -192 -480 -456 -649 -666 -22 -28 -50 -61 -62 -75 -13 -14 -23
-28 -23 -32 0 -3 -8 -14 -17 -24 -42 -41 -280 -391 -364 -534 -196 -333 -353
-680 -475 -1047 -53 -160 -131 -439 -149 -535 -3 -13 -14 -68 -25 -123 -22
-116 -38 -203 -45 -260 -5 -43 -22 -185 -29 -250 -28 -249 -28 -772 -1 -1050
11 -106 47 -373 60 -435 8 -39 14 -72 20 -105 46 -265 186 -718 320 -1035 62
-147 238 -505 261 -531 8 -8 14 -19 14 -23 0 -11 150 -258 172 -282 10 -11 18
-24 18 -28 0 -20 340 -474 414 -552 6 -6 40 -44 76 -85 126 -141 412 -420 515
-501 16 -13 37 -30 46 -38 8 -8 32 -28 53 -45 21 -16 46 -37 55 -45 22 -18 57
-45 131 -99 30 -22 60 -44 65 -49 6 -5 24 -17 40 -28 17 -10 32 -21 35 -24 15
-15 100 -70 109 -70 6 0 11 -4 11 -9 0 -5 9 -13 20 -16 11 -3 26 -12 33 -19 6
-7 24 -19 39 -27 15 -8 62 -35 105 -61 43 -25 94 -56 113 -67 94 -56 443 -224
590 -285 344 -143 757 -264 1100 -322 14 -3 50 -9 80 -14 83 -14 110 -18 170
-25 30 -3 62 -8 70 -10 16 -4 117 -13 280 -25 104 -7 717 -5 775 3 17 3 68 8
115 12 47 4 92 8 100 10 8 1 40 6 70 10 336 43 856 164 985 230 28 14 57 25
66 25 9 0 19 3 23 7 3 4 12 8 19 9 7 1 48 16 92 34 44 17 85 33 90 34 6 2 21
8 35 13 14 6 55 23 93 38 37 15 67 30 67 34 0 4 6 8 13 8 6 0 38 12 70 26 32
15 62 27 67 27 6 0 10 5 10 10 0 6 6 10 13 10 7 0 28 8 47 18 181 95 254 136
370 205 74 44 137 83 140 87 3 3 23 17 45 30 22 13 65 42 96 65 31 22 66 47
79 55 20 13 55 39 85 62 6 5 28 22 50 39 48 36 51 38 145 114 41 33 81 67 90
75 9 8 52 47 96 85 137 122 350 339 479 490 33 39 62 72 65 75 3 3 21 25 39
50 19 25 39 50 45 55 7 6 29 35 51 65 48 66 48 67 78 105 26 32 152 218 203
300 88 140 220 376 271 485 12 25 41 88 66 140 51 109 138 322 174 425 68 197
149 472 169 575 3 14 11 50 19 80 7 30 16 71 19 90 3 19 8 46 11 60 3 14 8 41
11 60 3 19 7 42 9 50 2 8 7 38 11 65 3 28 8 59 10 70 8 40 25 202 41 380 15
165 7 808 -11 902 -2 10 -7 52 -11 93 -4 41 -9 84 -11 95 -2 11 -6 40 -9 65
-8 71 -21 142 -69 385 -2 11 -9 40 -16 65 -7 25 -13 52 -15 60 -27 136 -137
484 -215 680 -78 197 -92 230 -186 420 -294 597 -700 1137 -1194 1590 -99 91
-119 109 -170 150 -30 25 -61 51 -68 58 -8 7 -30 25 -50 40 -21 15 -39 29 -42
32 -9 10 -125 95 -165 122 -22 15 -50 36 -62 48 -13 11 -23 18 -23 15 0 -4
-17 6 -37 22 -53 41 -231 153 -243 153 -6 0 -10 5 -10 10 0 6 -6 10 -14 10 -8
0 -21 6 -28 13 -7 7 -24 18 -38 25 -14 7 -41 22 -60 33 -94 57 -459 234 -562
274 -35 13 -76 29 -93 36 -16 7 -32 13 -35 14 -3 1 -18 7 -35 14 -16 7 -37 14
-45 16 -24 6 -103 36 -114 43 -6 3 -15 7 -21 7 -22 2 -71 18 -82 28 -7 5 -13
6 -13 2 0 -4 -7 -2 -15 5 -8 7 -15 10 -15 6 0 -3 -12 -1 -27 5 -16 6 -35 12
-44 14 -9 2 -47 12 -85 24 -88 25 -233 62 -259 65 -11 2 -29 6 -40 9 -11 3
-40 9 -65 12 -24 4 -48 8 -51 11 -4 2 -24 6 -44 10 -21 3 -47 7 -58 10 -19 3
-45 7 -127 20 -14 2 -45 6 -70 9 -25 3 -61 7 -80 10 -19 3 -60 8 -90 11 -30 2
-77 7 -105 11 -67 8 -835 12 -835 4z"/>
</g>
</svg>
