<?xml version="1.0" standalone="no"?>
<!DOCTYPE svg PUBLIC "-//W3C//DTD SVG 20010904//EN"
 "http://www.w3.org/TR/2001/REC-SVG-20010904/DTD/svg10.dtd">
<svg version="1.0" xmlns="http://www.w3.org/2000/svg"
 width="1080.000000pt" height="1080.000000pt" viewBox="0 0 1080.000000 1080.000000"
 preserveAspectRatio="xMidYMid meet">
<metadata>
Created by potrace 1.14, written by Peter Selinger 2001-2017
</metadata>
<g transform="translate(0.000000,1080.000000) scale(0.100000,-0.100000)"
fill="#000000" stroke="none">
<path d="M5095 10784 c-155 -8 -401 -37 -597 -70 -1459 -244 -2760 -1086
-3588 -2324 -984 -1471 -1183 -3345 -528 -4989 408 -1027 1122 -1905 2045
-2514 750 -496 1578 -785 2497 -872 214 -20 738 -20 952 0 186 18 391 44 418
55 13 4 27 29 41 71 l22 64 21 -49 c12 -27 22 -52 22 -57 0 -12 0 -12 120 11
246 47 592 153 925 285 276 109 721 348 990 533 1033 707 1791 1744 2140 2928
232 787 283 1615 149 2424 -122 738 -397 1443 -809 2070 -678 1032 -1671 1792
-2844 2177 -327 107 -766 199 -1131 238 -149 16 -681 28 -845 19z m1290 -5964
c3 -5 4 -10 1 -10 -2 0 -12 -3 -20 -6 -12 -5 -15 -2 -10 10 7 18 20 21 29 6z
m104 -227 c69 -165 66 -154 47 -147 -19 7 -20 0 -4 -29 10 -19 12 -19 17 -5 7
19 22 -10 159 -292 45 -91 93 -186 108 -212 15 -27 25 -50 23 -53 -3 -2 -36 2
-74 10 -92 20 -308 19 -421 0 -281 -49 -523 -179 -678 -363 -53 -63 -156 -249
-156 -282 0 -13 -25 -15 -165 -15 l-164 0 -22 56 c-11 31 -43 94 -70 140 -54
93 -54 95 -6 177 53 88 327 392 355 392 6 0 12 8 12 18 0 10 18 35 39 56 31
30 44 37 61 31 20 -6 22 -4 17 15 -4 18 5 32 46 69 28 25 76 69 107 97 30 28
107 95 170 149 63 54 137 119 165 144 27 25 44 39 37 32 -18 -22 -15 -29 11
-28 12 0 28 -2 36 -4 9 -3 17 10 25 36 6 22 15 39 19 38 4 -2 7 0 8 5 0 4 5
13 11 20 15 18 -2 15 -24 -5 -10 -9 -18 -12 -18 -6 0 10 131 122 160 137 8 4
-9 -15 -37 -42 -54 -51 -67 -70 -35 -53 14 7 20 4 29 -15 9 -19 7 -30 -9 -60
-14 -26 -16 -40 -9 -47 8 -8 11 -5 11 9 0 10 7 28 15 38 8 11 15 31 15 45 1
22 3 19 15 -14 8 -22 15 -41 15 -42 0 -2 10 -3 21 -3 12 0 28 -8 35 -17 7 -10
14 -13 14 -6 0 6 -4 15 -10 18 -11 7 -14 45 -4 45 3 0 14 -10 25 -22 l19 -23
-7 30 c-6 27 -5 29 10 16 10 -7 17 -22 17 -32 0 -10 8 -22 18 -28 14 -8 15
-12 4 -23 -11 -11 -15 -10 -22 2 -7 10 -10 11 -10 2 0 -15 47 -38 57 -29 3 4
-6 37 -22 75 -15 37 -34 83 -41 102 -15 41 -29 41 -65 0 -30 -35 -43 -39 -34
-10 4 13 2 20 -7 21 -7 0 -3 4 10 10 17 6 22 15 20 31 -2 17 4 26 22 34 23 10
26 8 41 -30 10 -23 40 -96 68 -163z m-189 107 c0 -5 -4 -10 -10 -10 -5 0 -10
5 -10 10 0 6 5 10 10 10 6 0 10 -4 10 -10z m110 -10 c0 -5 -4 -10 -10 -10 -5
0 -10 5 -10 10 0 6 5 10 10 10 6 0 10 -4 10 -10z m-56 -55 c-6 -16 -24 -21
-24 -7 0 11 11 22 21 22 5 0 6 -7 3 -15z m-1694 -80 c0 -8 -4 -15 -10 -15 -5
0 -7 7 -4 15 4 8 8 15 10 15 2 0 4 -7 4 -15z m-3 -67 c-3 -7 -5 -2 -5 12 0 14
2 19 5 13 2 -7 2 -19 0 -25z m-127 -32 c0 -2 -7 -7 -16 -10 -8 -3 -12 -2 -9 4
6 10 25 14 25 6z m130 -46 c0 -27 -4 -39 -12 -37 -7 1 -13 -5 -13 -13 0 -8 6
-14 13 -12 6 1 12 1 12 0 0 -5 18 -112 40 -233 24 -141 70 -296 111 -377 16
-32 27 -58 25 -58 -2 0 -40 18 -83 39 -115 57 -197 89 -285 111 -97 25 -328
53 -382 45 -22 -3 -63 -7 -90 -10 -27 -3 -60 -8 -74 -12 -23 -5 -23 -5 -9 13
9 11 36 46 60 79 109 147 460 473 495 460 8 -3 21 0 29 6 10 9 19 9 37 -1 20
-10 28 -9 48 4 23 15 38 13 38 -5 0 -5 -7 -6 -15 -3 -10 4 -15 0 -15 -15 0
-23 -16 -29 -23 -8 -2 6 -7 9 -11 6 -4 -4 1 -15 11 -24 16 -17 18 -17 31 4 8
11 21 21 28 21 18 0 19 46 2 53 -7 3 -3 6 10 6 19 1 22 -4 22 -39z m2035 -741
c109 -13 236 -49 317 -89 73 -36 210 -135 260 -187 33 -35 35 -40 22 -57 -8
-11 -14 -16 -14 -10 0 5 -5 2 -10 -6 -8 -12 -15 -9 -46 20 -20 19 -34 29 -30
23 5 -8 1 -13 -9 -13 -12 0 -15 6 -10 20 3 11 2 20 -3 20 -5 0 -14 10 -20 23
-10 20 -11 20 -9 2 1 -11 9 -25 17 -32 9 -8 11 -12 3 -13 -6 0 -19 7 -28 16
-19 19 -33 11 -16 -9 6 -8 9 -21 6 -29 -6 -16 19 -75 55 -130 34 -50 105 -88
172 -91 51 -2 52 -1 58 28 4 25 8 17 24 -51 10 -45 16 -92 13 -105 -70 -302
-142 -439 -290 -553 -111 -86 -303 -171 -441 -195 -112 -20 -316 -8 -451 26
-185 46 -371 167 -451 294 -61 98 -104 259 -104 396 0 73 33 218 62 278 153
306 518 474 923 424z m-2395 -14 c158 -21 330 -87 446 -171 83 -61 171 -188
212 -309 24 -72 27 -93 26 -210 -1 -71 -6 -157 -13 -190 -18 -96 -74 -198
-156 -284 -154 -161 -376 -242 -664 -242 -224 0 -443 61 -584 163 -56 41 -151
149 -195 221 -36 60 -78 199 -94 309 l-11 77 38 83 c20 46 50 102 66 126 16
24 38 60 48 81 19 36 51 71 51 56 0 -5 -11 -23 -26 -42 -14 -18 -20 -33 -14
-33 6 0 16 11 22 25 6 14 19 25 29 25 10 0 22 6 26 14 4 7 23 21 41 30 17 9
32 24 32 34 0 13 2 14 9 3 9 -15 51 23 123 111 43 53 93 78 198 102 145 32
262 38 390 21z m3877 -285 c104 -48 182 -134 217 -241 34 -107 37 -272 5 -374
-72 -235 -181 -352 -382 -414 -137 -43 -229 -54 -335 -42 -88 10 -187 44 -224
78 -22 20 -19 23 -116 -137 -35 -58 -67 -107 -70 -110 -4 -3 -27 -34 -51 -70
-25 -36 -58 -82 -75 -102 -17 -20 -44 -55 -61 -78 -38 -51 -200 -174 -325
-247 -52 -30 -115 -68 -139 -84 -24 -17 -75 -39 -115 -49 -39 -11 -111 -31
-161 -46 -84 -24 -184 -45 -385 -80 -147 -25 -221 -46 -228 -63 -3 -9 -22 -34
-41 -56 -20 -22 -66 -83 -103 -135 -36 -52 -88 -120 -115 -150 -26 -31 -57
-73 -68 -93 -11 -20 -22 -37 -25 -37 -3 0 -18 20 -35 44 -78 115 -211 280
-279 349 -75 74 -76 76 -49 80 23 3 21 4 -9 6 -21 0 -61 10 -90 21 -29 11 -63
20 -75 20 -61 0 -358 67 -503 113 -146 47 -262 111 -694 383 -57 36 -165 184
-237 326 -38 75 -69 141 -69 147 0 6 36 -15 79 -48 264 -196 598 -264 996
-205 280 42 498 179 658 412 78 114 115 224 126 371 6 84 6 85 41 105 63 37
224 16 249 -32 5 -10 9 -49 9 -89 2 -175 125 -384 330 -559 113 -97 289 -171
492 -209 117 -22 347 -25 445 -6 277 53 449 139 626 312 142 140 228 295 245
444 9 86 12 94 32 88 28 -7 88 22 107 51 10 16 18 48 19 80 1 66 -13 84 -95
122 -62 29 -66 35 -46 72 24 42 212 149 267 151 8 0 35 5 60 10 64 13 126 4
197 -29z m-5285 4 c62 -16 188 -75 205 -96 6 -7 10 -33 9 -58 l-1 -45 -42 3
c-80 7 -193 -71 -179 -122 3 -12 6 -33 6 -48 0 -22 11 -33 59 -62 32 -20 70
-36 85 -36 24 0 26 -3 26 -47 0 -44 15 -108 48 -202 9 -24 46 -87 84 -139 37
-53 68 -102 68 -108 0 -18 -79 -63 -149 -84 -97 -31 -204 -35 -294 -11 -139
36 -189 65 -277 158 -123 130 -175 258 -187 464 -6 115 -1 143 49 244 72 145
202 221 358 210 41 -4 101 -13 132 -21z m4365 -96 c-3 -8 -6 -5 -6 6 -1 11 2
17 5 13 3 -3 4 -12 1 -19z"/>
<path d="M6222 4630 c-1 -16 3 -30 8 -30 6 0 8 5 4 11 -3 6 -1 15 6 19 7 4 9
13 6 19 -12 19 -22 12 -24 -19z"/>
<path d="M6300 4562 c0 -22 4 -32 12 -30 18 6 20 22 3 43 -14 19 -14 18 -15
-13z"/>
<path d="M6231 4554 c0 -11 3 -14 6 -6 3 7 2 16 -1 19 -3 4 -6 -2 -5 -13z"/>
<path d="M6051 4531 c-27 -27 -27 -41 0 -41 14 0 19 5 16 14 -3 7 0 19 6 25 6
6 8 13 5 17 -4 3 -16 -4 -27 -15z"/>
<path d="M6096 4522 c-3 -5 1 -9 9 -9 8 0 12 4 9 9 -3 4 -7 8 -9 8 -2 0 -6 -4
-9 -8z"/>
<path d="M6340 4511 c0 -17 18 -21 24 -6 3 9 0 15 -9 15 -8 0 -15 -4 -15 -9z"/>
<path d="M5987 4473 c-12 -19 1 -33 29 -33 16 0 24 5 23 18 0 10 -3 12 -6 5
-7 -19 -31 -16 -35 5 -3 12 -6 14 -11 5z"/>
<path d="M5890 4385 c-7 -9 -8 -15 -2 -15 5 0 12 7 16 15 3 8 4 15 2 15 -2 0
-9 -7 -16 -15z"/>
<path d="M6560 4366 c0 -9 5 -16 10 -16 6 0 10 4 10 9 0 6 -4 13 -10 16 -5 3
-10 -1 -10 -9z"/>
<path d="M5789 4293 c-13 -16 -12 -17 4 -4 9 7 17 15 17 17 0 8 -8 3 -21 -13z"/>
<path d="M5714 4179 c-3 -6 -1 -16 5 -22 8 -8 11 -5 11 11 0 24 -5 28 -16 11z"/>
<path d="M5495 4030 c-3 -5 -1 -10 4 -10 6 0 11 5 11 10 0 6 -2 10 -4 10 -3 0
-8 -4 -11 -10z"/>
<path d="M5096 3561 c-4 -7 -5 -15 -2 -18 9 -9 19 4 14 18 -4 11 -6 11 -12 0z"/>
<path d="M4441 4383 c-29 -19 -26 -28 7 -27 49 1 71 27 33 37 -11 3 -29 -2
-40 -10z"/>
<path d="M4395 4340 c-3 -5 -1 -10 4 -10 6 0 11 5 11 10 0 6 -2 10 -4 10 -3 0
-8 -4 -11 -10z"/>
<path d="M4495 4330 c-3 -5 -1 -10 4 -10 6 0 11 5 11 10 0 6 -2 10 -4 10 -3 0
-8 -4 -11 -10z"/>
<path d="M4297 4265 c-29 -26 -28 -32 2 -15 10 5 21 16 25 25 7 19 6 19 -27
-10z"/>
<path d="M4151 4117 c-6 -8 -8 -17 -4 -20 11 -12 21 -7 26 13 6 23 -5 26 -22
7z"/>
<path d="M7100 3425 c0 -8 2 -15 4 -15 2 0 6 7 10 15 3 8 1 15 -4 15 -6 0 -10
-7 -10 -15z"/>
<path d="M6363 3361 c-67 -25 -100 -48 -159 -114 -88 -98 -126 -227 -104 -354
13 -78 29 -111 83 -176 47 -57 106 -99 178 -127 89 -36 136 -40 219 -24 98 20
132 39 211 116 55 54 70 76 87 129 42 127 38 234 -14 345 -31 67 -119 153
-191 189 -78 38 -229 46 -310 16z"/>
<path d="M4051 3385 c-179 -50 -306 -190 -330 -366 -12 -90 -2 -152 39 -234
123 -252 490 -303 684 -95 59 63 84 115 98 204 27 176 -49 347 -197 442 -86
54 -203 74 -294 49z"/>
<path d="M8080 3360 c0 -5 5 -10 10 -10 6 0 10 5 10 10 0 6 -4 10 -10 10 -5 0
-10 -4 -10 -10z"/>
<path d="M8311 3134 c0 -11 3 -14 6 -6 3 7 2 16 -1 19 -3 4 -6 -2 -5 -13z"/>
<path d="M5665 2060 c-81 -47 -153 -61 -298 -59 -114 2 -133 5 -180 28 -74 36
-87 41 -87 35 0 -3 35 -22 78 -42 l77 -37 145 0 145 0 77 39 c43 21 82 44 89
52 16 19 11 18 -46 -16z"/>
</g>
</svg>
